<?xml version="1.0" encoding="UTF-8" standalone="no"?>
<svg
   inkscape:export-ydpi="96"
   inkscape:export-xdpi="96"
   inkscape:export-filename="H:\Android_Projects\Music7\Graphics\2.0\Music7Pro_2.0.png"
   sodipodi:docname="Music7Pro_2.0.svg"
   inkscape:version="1.1.1 (3bf5ae0d25, 2021-09-20)"
   id="svg8"
   version="1.1"
   viewBox="0 0 135.46666 135.46667"
   height="512"
   width="512"
   xmlns:inkscape="http://www.inkscape.org/namespaces/inkscape"
   xmlns:sodipodi="http://sodipodi.sourceforge.net/DTD/sodipodi-0.dtd"
   xmlns="http://www.w3.org/2000/svg"
   xmlns:svg="http://www.w3.org/2000/svg"
   xmlns:rdf="http://www.w3.org/1999/02/22-rdf-syntax-ns#"
   xmlns:cc="http://creativecommons.org/ns#"
   xmlns:dc="http://purl.org/dc/elements/1.1/">
  <defs
     id="defs2" />
  <sodipodi:namedview
     inkscape:snap-global="false"
     inkscape:window-maximized="0"
     inkscape:window-y="113"
     inkscape:window-x="1777"
     inkscape:window-height="1829"
     inkscape:window-width="2006"
     inkscape:snap-page="true"
     inkscape:snap-bbox-midpoints="true"
     inkscape:snap-bbox-edge-midpoints="true"
     inkscape:bbox-nodes="true"
     inkscape:bbox-paths="true"
     inkscape:snap-bbox="true"
     inkscape:showpageshadow="false"
     borderlayer="true"
     inkscape:pagecheckerboard="true"
     units="px"
     showgrid="false"
     inkscape:document-rotation="0"
     inkscape:current-layer="g855"
     inkscape:document-units="px"
     inkscape:cy="248.41239"
     inkscape:cx="341.95311"
     inkscape:zoom="1.1331963"
     inkscape:pageshadow="2"
     inkscape:pageopacity="0.0"
     borderopacity="1.0"
     bordercolor="#666666"
     pagecolor="#ffffff"
     id="base" />
  <metadata
     id="metadata5">
    <rdf:RDF>
      <cc:Work
         rdf:about="">
        <dc:format>image/svg+xml</dc:format>
        <dc:type
           rdf:resource="http://purl.org/dc/dcmitype/StillImage" />
        <dc:title />
      </cc:Work>
    </rdf:RDF>
  </metadata>
  <g
     id="layer1"
     inkscape:groupmode="layer"
     inkscape:label="Layer 1">
    <g
       transform="matrix(2.5600003,0,0,2.5600003,29.801674,-592.42064)"
       id="g855">
      <path
         style="opacity:1;fill:#ffffff;stroke-width:0.105207"
         d="m 1.19114,284.19032 c -1.021431,-0.32303 -1.758308,-1.00552 -2.272861,-2.1051 -0.61971,-1.32428 -0.616506,-1.2664 -0.618506,-11.17665 -0.0016,-8.16816 0.01459,-9.06916 0.164588,-9.12671 0.09153,-0.0351 0.42293,-0.0638 0.736452,-0.0638 h 0.570034 v -3.94527 -3.94526 h -0.672591 c -0.516263,0 -0.687432,-0.0387 -0.736448,-0.16641 -0.11307,-0.29466 -0.07045,-17.82614 0.04506,-18.53798 0.175686,-1.08261 0.484961,-1.75862 1.116823,-2.44111 1.361738,-1.47084 2.866014,-1.65172 4.950749,-0.5953 0.982492,0.49786 12.382375,8.23335 12.425975,8.43176 0.01836,0.0837 -0.112208,0.36382 -0.290219,0.62254 l -0.323657,0.47042 0.342825,0.25619 c 0.188555,0.14089 1.970887,1.33903 3.960743,2.66251 l 3.617925,2.40632 0.222132,-0.30626 c 0.122172,-0.16844 0.324816,-0.42883 0.450319,-0.57864 l 0.228197,-0.27237 4.400912,2.94283 c 5.034026,3.36618 5.764006,3.89559 6.763566,4.90511 2.89502,2.92387 2.78824,5.79997 -0.32592,8.77893 -0.42583,0.40734 -1.00023,0.92289 -1.27643,1.14566 -0.903542,0.72876 -9.5651,6.46344 -9.688157,6.41438 -0.06597,-0.0263 -0.276771,-0.28714 -0.468447,-0.57963 -0.21456,-0.32741 -0.403132,-0.51084 -0.490636,-0.47727 -0.07817,0.03 -1.851672,1.1949 -3.941117,2.58865 -4.20608,2.80566 -3.900776,2.50729 -3.358368,3.2821 0.107524,0.15359 0.195068,0.36664 0.194541,0.47343 -7.82e-4,0.19648 -0.317696,0.41175 -9.266724,6.29818 -3.768116,2.47856 -4.38934,2.79302 -5.489804,2.77894 -0.30257,-0.004 -0.739502,-0.067 -0.970955,-0.14013 z"
         id="path847"
         inkscape:connector-curvature="0" />
      <path
         style="opacity:1;fill:#000000;stroke-width:0.105207"
         d="m 8.845051,276.45225 c 3.374166,-2.22768 6.182111,-4.05032 6.239879,-4.05032 0.05777,0 0.254592,0.23307 0.437396,0.51795 0.543172,0.84645 0.546872,0.84722 1.351012,0.27891 0.388145,-0.27432 2.086533,-1.41611 3.774197,-2.5373 1.687664,-1.12121 3.098183,-2.08661 3.134483,-2.14535 0.03632,-0.0587 -0.101759,-0.35589 -0.3068,-0.66036 -0.20504,-0.30447 -0.372799,-0.63252 -0.372799,-0.729 0,-0.11282 1.004451,-0.84245 2.814283,-2.04429 1.547865,-1.02788 3.639493,-2.41721 4.648073,-3.08739 2.049576,-1.36193 3.473665,-2.61917 3.942525,-3.48063 l 0.29531,-0.54258 -0.18194,-0.47643 c -0.37016,-0.96922 -1.341811,-1.75368 -6.320052,-5.10243 -2.540759,-1.70911 -4.726084,-3.17276 -4.85628,-3.25257 -0.326259,-0.19998 -0.29761,-0.43318 0.131508,-1.07039 0.202528,-0.30073 0.368228,-0.59765 0.368228,-0.65983 0,-0.0622 -1.759751,-1.28794 -3.910559,-2.72391 -3.279305,-2.1894 -3.928897,-2.58519 -4.024169,-2.45193 -0.06248,0.0874 -0.269936,0.38238 -0.461004,0.6555 -0.253336,0.36213 -0.400276,0.48275 -0.54272,0.4455 -0.107428,-0.0281 -2.690888,-1.74137 -5.741015,-3.80726 -3.050131,-2.06591 -5.851448,-3.92425 -6.225147,-4.12967 -1.125045,-0.61841 -1.022683,-1.48804 -1.083643,9.20624 l -0.0526,9.22818 -0.789051,0.0526 -0.789055,0.0526 v 3.89266 3.89266 l 0.753543,0.0307 c 0.44839,0.0183 0.798721,0.0852 0.865113,0.16517 0.07621,0.0918 0.120813,2.9997 0.140719,9.17488 0.03046,9.45054 0.03948,9.63335 0.467008,9.4693 0.08729,-0.0335 2.919393,-1.88356 6.293561,-4.11124 z"
         id="path849"
         inkscape:connector-curvature="0" />
      <path
         inkscape:transform-center-y="-6.0652213e-06"
         transform="scale(-1,1)"
         inkscape:transform-center-x="2.3931891"
         d="m -4.7084703,257.87262 c 0,16.5805 0,16.5805 -14.3591377,8.29025 -14.359138,-8.29025 -14.359138,-8.29025 0,-16.5805 14.3591377,-8.29025 14.3591377,-8.29025 14.3591377,8.29025 z"
         inkscape:randomized="0"
         inkscape:rounded="1"
         inkscape:flatsided="true"
         sodipodi:arg2="1.0471976"
         sodipodi:arg1="0"
         sodipodi:r2="4.7863793"
         sodipodi:r1="9.5727587"
         sodipodi:cy="257.87262"
         sodipodi:cx="-14.281229"
         sodipodi:sides="3"
         id="path851"
         style="fill:#ff2a2a;stroke-width:1.04945576;fill-opacity:1"
         sodipodi:type="star" />
      <path
         inkscape:connector-curvature="0"
         id="path853"
         d="m 12.289192,263.47402 c -0.829125,-0.41432 -1.243727,-1.15148 -1.169276,-2.07897 0.0592,-0.73749 0.441683,-1.30353 1.118697,-1.65561 0.337881,-0.17571 0.477789,-0.19905 1.407124,-0.23481 l 1.031943,-0.0397 0.01906,-3.91656 c 0.01631,-3.35007 0.03484,-3.92965 0.128054,-4.00702 0.184088,-0.15277 0.30204,-0.036 0.6133,0.60703 0.336177,0.69454 0.704621,1.08404 1.389583,1.46902 1.072381,0.60272 1.646061,1.59192 1.646061,2.83832 0,0.38037 -0.02495,0.47439 -0.142576,0.53734 -0.07842,0.042 -0.162654,0.0763 -0.187194,0.0763 -0.02455,0 -0.272749,-0.21427 -0.551579,-0.47614 -0.278826,-0.26187 -0.697307,-0.59789 -0.929954,-0.74672 -0.379308,-0.24265 -1.09024,-0.54619 -1.279219,-0.54619 -0.04561,0 -0.08013,1.23864 -0.09398,3.37224 l -0.02189,3.37223 -0.175858,0.38916 c -0.216304,0.47864 -0.76773,0.99167 -1.238192,1.15197 -0.550919,0.18772 -1.033685,0.1532 -1.56412,-0.11187 z"
         style="opacity:1;fill:#ffffff;stroke-width:0.07371009" />
    </g>
  </g>
</svg>
